<?xml version="1.0" encoding="UTF-8" standalone="no"?>
<!DOCTYPE svg PUBLIC "-//W3C//DTD SVG 1.1//EN"
 "http://www.w3.org/Graphics/SVG/1.1/DTD/svg11.dtd">
<!-- Generated by graphviz version 2.36.0 (20140111.2315)
 -->
<!-- Title: %3 Pages: 1 -->
<svg width="1088pt" height="904pt"
 viewBox="0.00 0.00 1088.00 904.00" xmlns="http://www.w3.org/2000/svg" xmlns:xlink="http://www.w3.org/1999/xlink">
<g id="graph0" class="graph" transform="scale(1 1) rotate(0) translate(4 900)">
<title>%3</title>
<polygon fill="white" stroke="none" points="-4,4 -4,-900 1084,-900 1084,4 -4,4"/>
<!-- (below main) -->
<g id="node1" class="node"><title>(below main)</title>
<polygon fill="#ff0100" stroke="#ff0100" points="461.25,-687.5 390.75,-687.5 390.75,-624.5 461.25,-624.5 461.25,-687.5"/>
<text text-anchor="middle" x="426" y="-675.5" font-family="Arial" font-size="10.00" fill="#ffffff">libc&#45;2.19.so</text>
<text text-anchor="middle" x="426" y="-664.5" font-family="Arial" font-size="10.00" fill="#ffffff">(below main)</text>
<text text-anchor="middle" x="426" y="-653.5" font-family="Arial" font-size="10.00" fill="#ffffff">99.93%</text>
<text text-anchor="middle" x="426" y="-642.5" font-family="Arial" font-size="10.00" fill="#ffffff">(0.00%)</text>
<text text-anchor="middle" x="426" y="-631.5" font-family="Arial" font-size="10.00" fill="#ffffff">1×</text>
</g>
<!-- main -->
<g id="node2" class="node"><title>main</title>
<polygon fill="#ff0100" stroke="#ff0100" points="453.5,-583.5 398.5,-583.5 398.5,-520.5 453.5,-520.5 453.5,-583.5"/>
<text text-anchor="middle" x="426" y="-571.5" font-family="Arial" font-size="10.00" fill="#ffffff">simu</text>
<text text-anchor="middle" x="426" y="-560.5" font-family="Arial" font-size="10.00" fill="#ffffff">main</text>
<text text-anchor="middle" x="426" y="-549.5" font-family="Arial" font-size="10.00" fill="#ffffff">99.92%</text>
<text text-anchor="middle" x="426" y="-538.5" font-family="Arial" font-size="10.00" fill="#ffffff">(17.95%)</text>
<text text-anchor="middle" x="426" y="-527.5" font-family="Arial" font-size="10.00" fill="#ffffff">1×</text>
</g>
<!-- (below main)&#45;&gt;main -->
<g id="edge1" class="edge"><title>(below main)&#45;&gt;main</title>
<path fill="none" stroke="#ff0100" stroke-width="4" d="M426,-624.397C426,-614.714 426,-603.858 426,-593.589"/>
<polygon fill="#ff0100" stroke="#ff0100" stroke-width="4" points="429.5,-593.582 426,-583.582 422.5,-593.582 429.5,-593.582"/>
<text text-anchor="middle" x="443" y="-607" font-family="Arial" font-size="10.00" fill="#ff0100">99.92%</text>
<text text-anchor="middle" x="443" y="-596" font-family="Arial" font-size="10.00" fill="#ff0100">1×</text>
</g>
<!-- __fprintf_chk -->
<g id="node7" class="node"><title>__fprintf_chk</title>
<polygon fill="#0d247a" stroke="#0d247a" points="82.25,-479.5 11.75,-479.5 11.75,-416.5 82.25,-416.5 82.25,-479.5"/>
<text text-anchor="middle" x="47" y="-467.5" font-family="Arial" font-size="10.00" fill="#ffffff">libc&#45;2.19.so</text>
<text text-anchor="middle" x="47" y="-456.5" font-family="Arial" font-size="10.00" fill="#ffffff">__fprintf_chk</text>
<text text-anchor="middle" x="47" y="-445.5" font-family="Arial" font-size="10.00" fill="#ffffff">5.37%</text>
<text text-anchor="middle" x="47" y="-434.5" font-family="Arial" font-size="10.00" fill="#ffffff">(0.12%)</text>
<text text-anchor="middle" x="47" y="-423.5" font-family="Arial" font-size="10.00" fill="#ffffff">30444×</text>
</g>
<!-- main&#45;&gt;__fprintf_chk -->
<g id="edge8" class="edge"><title>main&#45;&gt;__fprintf_chk</title>
<path fill="none" stroke="#0d247a" stroke-width="0.5" d="M398.127,-549.144C338.819,-544.351 196.741,-528.339 89,-480 87.9251,-479.518 86.851,-479.004 85.7805,-478.465"/>
<polygon fill="#0d247a" stroke="#0d247a" stroke-width="0.5" points="86.2485,-477.326 82.5823,-476.77 85.1013,-479.491 86.2485,-477.326"/>
<text text-anchor="middle" x="185.5" y="-503" font-family="Arial" font-size="10.00" fill="#0d247a">5.37%</text>
<text text-anchor="middle" x="185.5" y="-492" font-family="Arial" font-size="10.00" fill="#0d247a">30444×</text>
</g>
<!-- convrad(double*, double*) -->
<g id="node12" class="node"><title>convrad(double*, double*)</title>
<polygon fill="#0d1675" stroke="#0d1675" points="220,-479.5 94,-479.5 94,-416.5 220,-416.5 220,-479.5"/>
<text text-anchor="middle" x="157" y="-467.5" font-family="Arial" font-size="10.00" fill="#ffffff">simu</text>
<text text-anchor="middle" x="157" y="-456.5" font-family="Arial" font-size="10.00" fill="#ffffff">convrad(double*, double*)</text>
<text text-anchor="middle" x="157" y="-445.5" font-family="Arial" font-size="10.00" fill="#ffffff">2.15%</text>
<text text-anchor="middle" x="157" y="-434.5" font-family="Arial" font-size="10.00" fill="#ffffff">(1.15%)</text>
<text text-anchor="middle" x="157" y="-423.5" font-family="Arial" font-size="10.00" fill="#ffffff">802798×</text>
</g>
<!-- main&#45;&gt;convrad(double*, double*) -->
<g id="edge9" class="edge"><title>main&#45;&gt;convrad(double*, double*)</title>
<path fill="none" stroke="#0d1675" stroke-width="0.5" d="M398.395,-537.287C368.987,-523.213 320.74,-501.637 277,-489 254.046,-482.368 246.82,-487.079 224,-480 223.847,-479.953 223.694,-479.905 223.541,-479.857"/>
<polygon fill="#0d1675" stroke="#0d1675" stroke-width="0.5" points="224.017,-478.724 220.31,-478.81 223.262,-481.054 224.017,-478.724"/>
<text text-anchor="middle" x="355" y="-503" font-family="Arial" font-size="10.00" fill="#0d1675">2.14%</text>
<text text-anchor="middle" x="355" y="-492" font-family="Arial" font-size="10.00" fill="#0d1675">798798×</text>
</g>
<!-- init(double***, double***, double, double*, double**, int**, double*, int**, int**, double**, double**, double**, double**, double*, long*, long*) -->
<g id="node13" class="node"><title>init(double***, double***, double, double*, double**, int**, double*, int**, int**, double**, double**, double**, double**, double*, long*, long*)</title>
<polygon fill="#0d1776" stroke="#0d1776" points="837,-479.5 229,-479.5 229,-416.5 837,-416.5 837,-479.5"/>
<text text-anchor="middle" x="533" y="-467.5" font-family="Arial" font-size="10.00" fill="#ffffff">simu</text>
<text text-anchor="middle" x="533" y="-456.5" font-family="Arial" font-size="10.00" fill="#ffffff">init(double***, double***, double, double*, double**, int**, double*, int**, int**, double**, double**, double**, double**, double*, long*, long*)</text>
<text text-anchor="middle" x="533" y="-445.5" font-family="Arial" font-size="10.00" fill="#ffffff">2.43%</text>
<text text-anchor="middle" x="533" y="-434.5" font-family="Arial" font-size="10.00" fill="#ffffff">(1.65%)</text>
<text text-anchor="middle" x="533" y="-423.5" font-family="Arial" font-size="10.00" fill="#ffffff">1×</text>
</g>
<!-- main&#45;&gt;init(double***, double***, double, double*, double**, int**, double*, int**, int**, double**, double**, double**, double**, double*, long*, long*) -->
<g id="edge10" class="edge"><title>main&#45;&gt;init(double***, double***, double, double*, double**, int**, double*, int**, int**, double**, double**, double**, double**, double*, long*, long*)</title>
<path fill="none" stroke="#0d1776" stroke-width="0.5" d="M453.555,-524.732C467.139,-511.783 483.667,-496.028 498.123,-482.247"/>
<polygon fill="#0d1776" stroke="#0d1776" stroke-width="0.5" points="499.297,-482.821 500.985,-479.519 497.606,-481.047 499.297,-482.821"/>
<text text-anchor="middle" x="504" y="-503" font-family="Arial" font-size="10.00" fill="#0d1776">2.43%</text>
<text text-anchor="middle" x="504" y="-492" font-family="Arial" font-size="10.00" fill="#0d1776">1×</text>
</g>
<!-- timeval(double*, double*, double*, double*, double) -->
<g id="node14" class="node"><title>timeval(double*, double*, double*, double*, double)</title>
<polygon fill="#b8d406" stroke="#b8d406" points="1080,-479.5 846,-479.5 846,-416.5 1080,-416.5 1080,-479.5"/>
<text text-anchor="middle" x="963" y="-467.5" font-family="Arial" font-size="10.00" fill="#ffffff">simu</text>
<text text-anchor="middle" x="963" y="-456.5" font-family="Arial" font-size="10.00" fill="#ffffff">timeval(double*, double*, double*, double*, double)</text>
<text text-anchor="middle" x="963" y="-445.5" font-family="Arial" font-size="10.00" fill="#ffffff">71.51%</text>
<text text-anchor="middle" x="963" y="-434.5" font-family="Arial" font-size="10.00" fill="#ffffff">(68.44%)</text>
<text text-anchor="middle" x="963" y="-423.5" font-family="Arial" font-size="10.00" fill="#ffffff">13343980×</text>
</g>
<!-- main&#45;&gt;timeval(double*, double*, double*, double*, double) -->
<g id="edge11" class="edge"><title>main&#45;&gt;timeval(double*, double*, double*, double*, double)</title>
<path fill="none" stroke="#b8d406" stroke-width="2.86" d="M453.899,-547.044C519.81,-537.527 690.405,-511.892 837.519,-480.935"/>
<polygon fill="#b8d406" stroke="#b8d406" stroke-width="2.86" points="838.138,-483.845 845.837,-479.174 836.905,-478.025 838.138,-483.845"/>
<text text-anchor="middle" x="821.5" y="-503" font-family="Arial" font-size="10.00" fill="#b8d406">71.50%</text>
<text text-anchor="middle" x="821.5" y="-492" font-family="Arial" font-size="10.00" fill="#b8d406">13341981×</text>
</g>
<!-- 0x00000000000012d0 -->
<g id="node3" class="node"><title>0x00000000000012d0</title>
<polygon fill="#ff0000" stroke="#ff0000" points="481.25,-895.5 370.75,-895.5 370.75,-832.5 481.25,-832.5 481.25,-895.5"/>
<text text-anchor="middle" x="426" y="-883.5" font-family="Arial" font-size="10.00" fill="#ffffff">ld&#45;2.19.so</text>
<text text-anchor="middle" x="426" y="-872.5" font-family="Arial" font-size="10.00" fill="#ffffff">0x00000000000012d0</text>
<text text-anchor="middle" x="426" y="-861.5" font-family="Arial" font-size="10.00" fill="#ffffff">100.00%</text>
<text text-anchor="middle" x="426" y="-850.5" font-family="Arial" font-size="10.00" fill="#ffffff">(0.00%)</text>
<text text-anchor="middle" x="426" y="-839.5" font-family="Arial" font-size="10.00" fill="#ffffff">0×</text>
</g>
<!-- 0x0000000000403466 -->
<g id="node4" class="node"><title>0x0000000000403466</title>
<polygon fill="#ff0100" stroke="#ff0100" points="481.25,-791.5 370.75,-791.5 370.75,-728.5 481.25,-728.5 481.25,-791.5"/>
<text text-anchor="middle" x="426" y="-779.5" font-family="Arial" font-size="10.00" fill="#ffffff">simu</text>
<text text-anchor="middle" x="426" y="-768.5" font-family="Arial" font-size="10.00" fill="#ffffff">0x0000000000403466</text>
<text text-anchor="middle" x="426" y="-757.5" font-family="Arial" font-size="10.00" fill="#ffffff">99.93%</text>
<text text-anchor="middle" x="426" y="-746.5" font-family="Arial" font-size="10.00" fill="#ffffff">(0.00%)</text>
<text text-anchor="middle" x="426" y="-735.5" font-family="Arial" font-size="10.00" fill="#ffffff">1×</text>
</g>
<!-- 0x00000000000012d0&#45;&gt;0x0000000000403466 -->
<g id="edge2" class="edge"><title>0x00000000000012d0&#45;&gt;0x0000000000403466</title>
<path fill="none" stroke="#ff0100" stroke-width="4" d="M426,-832.397C426,-822.714 426,-811.858 426,-801.589"/>
<polygon fill="#ff0100" stroke="#ff0100" stroke-width="4" points="429.5,-801.582 426,-791.582 422.5,-801.582 429.5,-801.582"/>
<text text-anchor="middle" x="443" y="-815" font-family="Arial" font-size="10.00" fill="#ff0100">99.93%</text>
<text text-anchor="middle" x="443" y="-804" font-family="Arial" font-size="10.00" fill="#ff0100">1×</text>
</g>
<!-- 0x0000000000403466&#45;&gt;(below main) -->
<g id="edge3" class="edge"><title>0x0000000000403466&#45;&gt;(below main)</title>
<path fill="none" stroke="#ff0100" stroke-width="4" d="M426,-728.397C426,-718.714 426,-707.858 426,-697.589"/>
<polygon fill="#ff0100" stroke="#ff0100" stroke-width="4" points="429.5,-697.582 426,-687.582 422.5,-697.582 429.5,-697.582"/>
<text text-anchor="middle" x="443" y="-711" font-family="Arial" font-size="10.00" fill="#ff0100">99.93%</text>
<text text-anchor="middle" x="443" y="-700" font-family="Arial" font-size="10.00" fill="#ff0100">1×</text>
</g>
<!-- FastArcTan2(double, double) -->
<g id="node5" class="node"><title>FastArcTan2(double, double)</title>
<polygon fill="#0d1174" stroke="#0d1174" points="228.25,-375.5 87.75,-375.5 87.75,-312.5 228.25,-312.5 228.25,-375.5"/>
<text text-anchor="middle" x="158" y="-363.5" font-family="Arial" font-size="10.00" fill="#ffffff">simu</text>
<text text-anchor="middle" x="158" y="-352.5" font-family="Arial" font-size="10.00" fill="#ffffff">FastArcTan2(double, double)</text>
<text text-anchor="middle" x="158" y="-341.5" font-family="Arial" font-size="10.00" fill="#ffffff">0.99%</text>
<text text-anchor="middle" x="158" y="-330.5" font-family="Arial" font-size="10.00" fill="#ffffff">(0.99%)</text>
<text text-anchor="middle" x="158" y="-319.5" font-family="Arial" font-size="10.00" fill="#ffffff">802798×</text>
</g>
<!-- __floor_sse41 -->
<g id="node6" class="node"><title>__floor_sse41</title>
<polygon fill="#0d1a77" stroke="#0d1a77" points="1001.25,-375.5 924.75,-375.5 924.75,-312.5 1001.25,-312.5 1001.25,-375.5"/>
<text text-anchor="middle" x="963" y="-363.5" font-family="Arial" font-size="10.00" fill="#ffffff">libm&#45;2.19.so</text>
<text text-anchor="middle" x="963" y="-352.5" font-family="Arial" font-size="10.00" fill="#ffffff">__floor_sse41</text>
<text text-anchor="middle" x="963" y="-341.5" font-family="Arial" font-size="10.00" fill="#ffffff">3.07%</text>
<text text-anchor="middle" x="963" y="-330.5" font-family="Arial" font-size="10.00" fill="#ffffff">(3.07%)</text>
<text text-anchor="middle" x="963" y="-319.5" font-family="Arial" font-size="10.00" fill="#ffffff">26687960×</text>
</g>
<!-- vfprintf -->
<g id="node8" class="node"><title>vfprintf</title>
<polygon fill="#0d2479" stroke="#0d2479" points="78.25,-375.5 11.75,-375.5 11.75,-312.5 78.25,-312.5 78.25,-375.5"/>
<text text-anchor="middle" x="45" y="-363.5" font-family="Arial" font-size="10.00" fill="#ffffff">libc&#45;2.19.so</text>
<text text-anchor="middle" x="45" y="-352.5" font-family="Arial" font-size="10.00" fill="#ffffff">vfprintf</text>
<text text-anchor="middle" x="45" y="-341.5" font-family="Arial" font-size="10.00" fill="#ffffff">5.24%</text>
<text text-anchor="middle" x="45" y="-330.5" font-family="Arial" font-size="10.00" fill="#ffffff">(0.72%)</text>
<text text-anchor="middle" x="45" y="-319.5" font-family="Arial" font-size="10.00" fill="#ffffff">30455×</text>
</g>
<!-- __fprintf_chk&#45;&gt;vfprintf -->
<g id="edge4" class="edge"><title>__fprintf_chk&#45;&gt;vfprintf</title>
<path fill="none" stroke="#0d2479" stroke-width="0.5" d="M46.3999,-416.397C46.1705,-404.697 45.9075,-391.283 45.6718,-379.264"/>
<polygon fill="#0d2479" stroke="#0d2479" stroke-width="0.5" points="46.8931,-379.057 45.5996,-375.582 44.4436,-379.105 46.8931,-379.057"/>
<text text-anchor="middle" x="63.5" y="-399" font-family="Arial" font-size="10.00" fill="#0d2479">5.24%</text>
<text text-anchor="middle" x="63.5" y="-388" font-family="Arial" font-size="10.00" fill="#0d2479">30444×</text>
</g>
<!-- __printf_fp -->
<g id="node10" class="node"><title>__printf_fp</title>
<polygon fill="#0d1e78" stroke="#0d1e78" points="78.25,-271.5 11.75,-271.5 11.75,-208.5 78.25,-208.5 78.25,-271.5"/>
<text text-anchor="middle" x="45" y="-259.5" font-family="Arial" font-size="10.00" fill="#ffffff">libc&#45;2.19.so</text>
<text text-anchor="middle" x="45" y="-248.5" font-family="Arial" font-size="10.00" fill="#ffffff">__printf_fp</text>
<text text-anchor="middle" x="45" y="-237.5" font-family="Arial" font-size="10.00" fill="#ffffff">4.12%</text>
<text text-anchor="middle" x="45" y="-226.5" font-family="Arial" font-size="10.00" fill="#ffffff">(2.07%)</text>
<text text-anchor="middle" x="45" y="-215.5" font-family="Arial" font-size="10.00" fill="#ffffff">50059×</text>
</g>
<!-- vfprintf&#45;&gt;__printf_fp -->
<g id="edge13" class="edge"><title>vfprintf&#45;&gt;__printf_fp</title>
<path fill="none" stroke="#0d1e78" stroke-width="0.5" d="M45,-312.397C45,-300.697 45,-287.283 45,-275.264"/>
<polygon fill="#0d1e78" stroke="#0d1e78" stroke-width="0.5" points="46.2251,-275.082 45,-271.582 43.7751,-275.082 46.2251,-275.082"/>
<text text-anchor="middle" x="61.5" y="-295" font-family="Arial" font-size="10.00" fill="#0d1e78">4.12%</text>
<text text-anchor="middle" x="61.5" y="-284" font-family="Arial" font-size="10.00" fill="#0d1e78">50059×</text>
</g>
<!-- __mpn_mul_1 -->
<g id="node9" class="node"><title>__mpn_mul_1</title>
<polygon fill="#0d1074" stroke="#0d1074" points="83.25,-63.5 6.75,-63.5 6.75,-0.5 83.25,-0.5 83.25,-63.5"/>
<text text-anchor="middle" x="45" y="-51.5" font-family="Arial" font-size="10.00" fill="#ffffff">libc&#45;2.19.so</text>
<text text-anchor="middle" x="45" y="-40.5" font-family="Arial" font-size="10.00" fill="#ffffff">__mpn_mul_1</text>
<text text-anchor="middle" x="45" y="-29.5" font-family="Arial" font-size="10.00" fill="#ffffff">0.71%</text>
<text text-anchor="middle" x="45" y="-18.5" font-family="Arial" font-size="10.00" fill="#ffffff">(0.71%)</text>
<text text-anchor="middle" x="45" y="-7.5" font-family="Arial" font-size="10.00" fill="#ffffff">598443×</text>
</g>
<!-- hack_digit.13629 -->
<g id="node11" class="node"><title>hack_digit.13629</title>
<polygon fill="#0d1475" stroke="#0d1475" points="90,-167.5 0,-167.5 0,-104.5 90,-104.5 90,-167.5"/>
<text text-anchor="middle" x="45" y="-155.5" font-family="Arial" font-size="10.00" fill="#ffffff">libc&#45;2.19.so</text>
<text text-anchor="middle" x="45" y="-144.5" font-family="Arial" font-size="10.00" fill="#ffffff">hack_digit.13629</text>
<text text-anchor="middle" x="45" y="-133.5" font-family="Arial" font-size="10.00" fill="#ffffff">1.65%</text>
<text text-anchor="middle" x="45" y="-122.5" font-family="Arial" font-size="10.00" fill="#ffffff">(1.00%)</text>
<text text-anchor="middle" x="45" y="-111.5" font-family="Arial" font-size="10.00" fill="#ffffff">582687×</text>
</g>
<!-- __printf_fp&#45;&gt;hack_digit.13629 -->
<g id="edge5" class="edge"><title>__printf_fp&#45;&gt;hack_digit.13629</title>
<path fill="none" stroke="#0d1475" stroke-width="0.5" d="M45,-208.397C45,-196.697 45,-183.283 45,-171.264"/>
<polygon fill="#0d1475" stroke="#0d1475" stroke-width="0.5" points="46.2251,-171.082 45,-167.582 43.7751,-171.082 46.2251,-171.082"/>
<text text-anchor="middle" x="64" y="-191" font-family="Arial" font-size="10.00" fill="#0d1475">1.65%</text>
<text text-anchor="middle" x="64" y="-180" font-family="Arial" font-size="10.00" fill="#0d1475">582687×</text>
</g>
<!-- hack_digit.13629&#45;&gt;__mpn_mul_1 -->
<g id="edge7" class="edge"><title>hack_digit.13629&#45;&gt;__mpn_mul_1</title>
<path fill="none" stroke="#0d0f74" stroke-width="0.5" d="M45,-104.397C45,-92.6971 45,-79.283 45,-67.2637"/>
<polygon fill="#0d0f74" stroke="#0d0f74" stroke-width="0.5" points="46.2251,-67.0817 45,-63.5818 43.7751,-67.0818 46.2251,-67.0817"/>
<text text-anchor="middle" x="64" y="-87" font-family="Arial" font-size="10.00" fill="#0d0f74">0.65%</text>
<text text-anchor="middle" x="64" y="-76" font-family="Arial" font-size="10.00" fill="#0d0f74">564322×</text>
</g>
<!-- convrad(double*, double*)&#45;&gt;FastArcTan2(double, double) -->
<g id="edge6" class="edge"><title>convrad(double*, double*)&#45;&gt;FastArcTan2(double, double)</title>
<path fill="none" stroke="#0d1174" stroke-width="0.5" d="M157.3,-416.397C157.415,-404.697 157.546,-391.283 157.664,-379.264"/>
<polygon fill="#0d1174" stroke="#0d1174" stroke-width="0.5" points="158.891,-379.094 157.7,-375.582 156.441,-379.07 158.891,-379.094"/>
<text text-anchor="middle" x="177" y="-399" font-family="Arial" font-size="10.00" fill="#0d1174">0.99%</text>
<text text-anchor="middle" x="177" y="-388" font-family="Arial" font-size="10.00" fill="#0d1174">802798×</text>
</g>
<!-- timeval(double*, double*, double*, double*, double)&#45;&gt;__floor_sse41 -->
<g id="edge12" class="edge"><title>timeval(double*, double*, double*, double*, double)&#45;&gt;__floor_sse41</title>
<path fill="none" stroke="#0d1a77" stroke-width="0.5" d="M963,-416.397C963,-404.697 963,-391.283 963,-379.264"/>
<polygon fill="#0d1a77" stroke="#0d1a77" stroke-width="0.5" points="964.225,-379.082 963,-375.582 961.775,-379.082 964.225,-379.082"/>
<text text-anchor="middle" x="987.5" y="-399" font-family="Arial" font-size="10.00" fill="#0d1a77">3.07%</text>
<text text-anchor="middle" x="987.5" y="-388" font-family="Arial" font-size="10.00" fill="#0d1a77">26687960×</text>
</g>
</g>
</svg>
